<svg width="309" height="36" viewBox="0 0 309 36" fill="none" xmlns="http://www.w3.org/2000/svg">
<rect width="309" height="36" fill="white"/>
<path d="M28.7108 23.6726L34 29M31.5556 16.7778C31.5556 22.1779 27.1779 26.5556 21.7778 26.5556C16.3777 26.5556 12 22.1779 12 16.7778C12 11.3777 16.3777 7 21.7778 7C27.1779 7 31.5556 11.3777 31.5556 16.7778Z" stroke="#2B2B33" stroke-width="2" stroke-linecap="round" stroke-linejoin="round"/>
<path d="M47.4091 20V8.36364H51.3409C52.2538 8.36364 53 8.52841 53.5795 8.85795C54.1629 9.18371 54.5947 9.625 54.875 10.1818C55.1553 10.7386 55.2955 11.3598 55.2955 12.0455C55.2955 12.7311 55.1553 13.3542 54.875 13.9148C54.5985 14.4754 54.1705 14.9223 53.5909 15.2557C53.0114 15.5852 52.2689 15.75 51.3636 15.75H48.5455V14.5H51.3182C51.9432 14.5 52.4451 14.392 52.8239 14.1761C53.2027 13.9602 53.4773 13.6686 53.6477 13.3011C53.822 12.9299 53.9091 12.5114 53.9091 12.0455C53.9091 11.5795 53.822 11.1629 53.6477 10.7955C53.4773 10.428 53.2008 10.1402 52.8182 9.93182C52.4356 9.7197 51.928 9.61364 51.2955 9.61364H48.8182V20H47.4091ZM60.9489 20.1818C60.108 20.1818 59.3826 19.9962 58.7727 19.625C58.1667 19.25 57.6989 18.7273 57.3693 18.0568C57.0436 17.3826 56.8807 16.5985 56.8807 15.7045C56.8807 14.8106 57.0436 14.0227 57.3693 13.3409C57.6989 12.6553 58.1572 12.1212 58.7443 11.7386C59.3352 11.3523 60.0246 11.1591 60.8125 11.1591C61.267 11.1591 61.7159 11.2348 62.1591 11.3864C62.6023 11.5379 63.0057 11.7841 63.3693 12.125C63.733 12.4621 64.0227 12.9091 64.2386 13.4659C64.4545 14.0227 64.5625 14.7083 64.5625 15.5227V16.0909H57.8352V14.9318H63.1989C63.1989 14.4394 63.1004 14 62.9034 13.6136C62.7102 13.2273 62.4337 12.9223 62.0739 12.6989C61.7178 12.4754 61.2973 12.3636 60.8125 12.3636C60.2784 12.3636 59.8163 12.4962 59.4261 12.7614C59.0398 13.0227 58.7424 13.3636 58.5341 13.7841C58.3258 14.2045 58.2216 14.6553 58.2216 15.1364V15.9091C58.2216 16.5682 58.3352 17.1269 58.5625 17.5852C58.7936 18.0398 59.1136 18.3864 59.5227 18.625C59.9318 18.8598 60.4072 18.9773 60.9489 18.9773C61.3011 18.9773 61.6193 18.928 61.9034 18.8295C62.1913 18.7273 62.4394 18.5758 62.6477 18.375C62.8561 18.1705 63.017 17.9167 63.1307 17.6136L64.4261 17.9773C64.2898 18.4167 64.0606 18.803 63.7386 19.1364C63.4167 19.4659 63.0189 19.7235 62.5455 19.9091C62.072 20.0909 61.5398 20.1818 60.9489 20.1818ZM72.7841 13.2273L71.5795 13.5682C71.5038 13.3674 71.392 13.1723 71.2443 12.983C71.1004 12.7898 70.9034 12.6307 70.6534 12.5057C70.4034 12.3807 70.0833 12.3182 69.6932 12.3182C69.1591 12.3182 68.714 12.4413 68.358 12.6875C68.0057 12.9299 67.8295 13.2386 67.8295 13.6136C67.8295 13.947 67.9508 14.2102 68.1932 14.4034C68.4356 14.5966 68.8144 14.7576 69.3295 14.8864L70.625 15.2045C71.4053 15.3939 71.9867 15.6837 72.3693 16.0739C72.7519 16.4602 72.9432 16.9583 72.9432 17.5682C72.9432 18.0682 72.7992 18.5152 72.5114 18.9091C72.2273 19.303 71.8295 19.6136 71.3182 19.8409C70.8068 20.0682 70.2121 20.1818 69.5341 20.1818C68.6439 20.1818 67.9072 19.9886 67.3239 19.6023C66.7405 19.2159 66.3712 18.6515 66.2159 17.9091L67.4886 17.5909C67.6098 18.0606 67.839 18.4129 68.1761 18.6477C68.517 18.8826 68.9621 19 69.5114 19C70.1364 19 70.6326 18.8674 71 18.6023C71.3712 18.3333 71.5568 18.0114 71.5568 17.6364C71.5568 17.3333 71.4508 17.0795 71.2386 16.875C71.0265 16.6667 70.7008 16.5114 70.2614 16.4091L68.8068 16.0682C68.0076 15.8788 67.4205 15.5852 67.0455 15.1875C66.6742 14.786 66.4886 14.2841 66.4886 13.6818C66.4886 13.1894 66.6269 12.7538 66.9034 12.375C67.1837 11.9962 67.5644 11.6989 68.0455 11.483C68.5303 11.267 69.0795 11.1591 69.6932 11.1591C70.5568 11.1591 71.2348 11.3485 71.7273 11.7273C72.2235 12.1061 72.5758 12.6061 72.7841 13.2273ZM80.9162 23.2727V18.6591H80.8026C80.7041 18.8182 80.5639 19.0189 80.3821 19.2614C80.2003 19.5 79.9408 19.714 79.6037 19.9034C79.2666 20.089 78.8177 20.1818 78.2571 20.1818C77.5298 20.1818 76.8878 19.9981 76.331 19.6307C75.7741 19.2595 75.3385 18.7367 75.0241 18.0625C74.7098 17.3845 74.5526 16.5833 74.5526 15.6591C74.5526 14.7424 74.7098 13.947 75.0241 13.2727C75.3385 12.5985 75.776 12.0777 76.3366 11.7102C76.8973 11.3428 77.545 11.1591 78.2798 11.1591C78.848 11.1591 79.2969 11.2538 79.6264 11.4432C79.9598 11.6288 80.2135 11.8409 80.3878 12.0795C80.5658 12.3144 80.7041 12.5076 80.8026 12.6591H80.9616V11.2727H82.2571V23.2727H80.9162ZM78.4389 18.9773C78.9768 18.9773 79.4313 18.8371 79.8026 18.5568C80.1738 18.2727 80.456 17.8807 80.6491 17.3807C80.8423 16.8769 80.9389 16.2955 80.9389 15.6364C80.9389 14.9848 80.8442 14.4148 80.6548 13.9261C80.4654 13.4337 80.1851 13.0511 79.8139 12.7784C79.4427 12.5019 78.9844 12.3636 78.4389 12.3636C77.8707 12.3636 77.3973 12.5095 77.0185 12.8011C76.6435 13.089 76.3613 13.4811 76.1719 13.9773C75.9863 14.4697 75.8935 15.0227 75.8935 15.6364C75.8935 16.2576 75.9882 16.822 76.1776 17.3295C76.3707 17.8333 76.6548 18.2348 77.0298 18.5341C77.4086 18.8295 77.8783 18.9773 78.4389 18.9773ZM90.2116 16.4318V11.2727H91.5526V20H90.2116V18.5227H90.1207C89.9162 18.9659 89.598 19.3428 89.1662 19.6534C88.7344 19.9602 88.1889 20.1136 87.5298 20.1136C86.9844 20.1136 86.4995 19.9943 86.0753 19.7557C85.651 19.5133 85.3177 19.1496 85.0753 18.6648C84.8329 18.1761 84.7116 17.5606 84.7116 16.8182V11.2727H86.0526V16.7273C86.0526 17.3636 86.2306 17.8712 86.5866 18.25C86.9465 18.6288 87.4048 18.8182 87.9616 18.8182C88.295 18.8182 88.634 18.733 88.9787 18.5625C89.3272 18.392 89.6188 18.1307 89.8537 17.7784C90.0923 17.4261 90.2116 16.9773 90.2116 16.4318ZM94.0085 20V11.2727H95.3494V20H94.0085ZM94.6903 9.81818C94.429 9.81818 94.2036 9.72917 94.0142 9.55114C93.8286 9.37311 93.7358 9.15909 93.7358 8.90909C93.7358 8.65909 93.8286 8.44508 94.0142 8.26705C94.2036 8.08902 94.429 8 94.6903 8C94.9517 8 95.1752 8.08902 95.3608 8.26705C95.5502 8.44508 95.6449 8.65909 95.6449 8.90909C95.6449 9.15909 95.5502 9.37311 95.3608 9.55114C95.1752 9.72917 94.9517 9.81818 94.6903 9.81818ZM103.987 13.2273L102.783 13.5682C102.707 13.3674 102.595 13.1723 102.447 12.983C102.304 12.7898 102.107 12.6307 101.857 12.5057C101.607 12.3807 101.286 12.3182 100.896 12.3182C100.362 12.3182 99.9171 12.4413 99.5611 12.6875C99.2088 12.9299 99.0327 13.2386 99.0327 13.6136C99.0327 13.947 99.1539 14.2102 99.3963 14.4034C99.6387 14.5966 100.018 14.7576 100.533 14.8864L101.828 15.2045C102.608 15.3939 103.19 15.6837 103.572 16.0739C103.955 16.4602 104.146 16.9583 104.146 17.5682C104.146 18.0682 104.002 18.5152 103.714 18.9091C103.43 19.303 103.033 19.6136 102.521 19.8409C102.01 20.0682 101.415 20.1818 100.737 20.1818C99.8471 20.1818 99.1103 19.9886 98.527 19.6023C97.9437 19.2159 97.5743 18.6515 97.419 17.9091L98.6918 17.5909C98.813 18.0606 99.0421 18.4129 99.3793 18.6477C99.7202 18.8826 100.165 19 100.714 19C101.339 19 101.836 18.8674 102.203 18.6023C102.574 18.3333 102.76 18.0114 102.76 17.6364C102.76 17.3333 102.654 17.0795 102.442 16.875C102.23 16.6667 101.904 16.5114 101.464 16.4091L100.01 16.0682C99.2107 15.8788 98.6236 15.5852 98.2486 15.1875C97.8774 14.786 97.6918 14.2841 97.6918 13.6818C97.6918 13.1894 97.83 12.7538 98.1065 12.375C98.3868 11.9962 98.7675 11.6989 99.2486 11.483C99.7334 11.267 100.283 11.1591 100.896 11.1591C101.76 11.1591 102.438 11.3485 102.93 11.7273C103.427 12.1061 103.779 12.6061 103.987 13.2273ZM108.733 20.2045C108.18 20.2045 107.678 20.1004 107.227 19.892C106.777 19.6799 106.419 19.375 106.153 18.9773C105.888 18.5758 105.756 18.0909 105.756 17.5227C105.756 17.0227 105.854 16.6174 106.051 16.3068C106.248 15.9924 106.511 15.7462 106.841 15.5682C107.17 15.3902 107.534 15.2576 107.932 15.1705C108.333 15.0795 108.737 15.0076 109.142 14.9545C109.672 14.8864 110.102 14.8352 110.432 14.8011C110.765 14.7633 111.008 14.7008 111.159 14.6136C111.314 14.5265 111.392 14.375 111.392 14.1591V14.1136C111.392 13.553 111.239 13.1174 110.932 12.8068C110.629 12.4962 110.169 12.3409 109.551 12.3409C108.911 12.3409 108.409 12.4811 108.045 12.7614C107.682 13.0417 107.426 13.3409 107.278 13.6591L106.006 13.2045C106.233 12.6742 106.536 12.2614 106.915 11.9659C107.297 11.6667 107.714 11.4583 108.165 11.3409C108.619 11.2197 109.066 11.1591 109.506 11.1591C109.786 11.1591 110.108 11.1932 110.472 11.2614C110.839 11.3258 111.193 11.4602 111.534 11.6648C111.879 11.8693 112.165 12.178 112.392 12.5909C112.619 13.0038 112.733 13.5568 112.733 14.25V20H111.392V18.8182H111.324C111.233 19.0076 111.081 19.2102 110.869 19.4261C110.657 19.642 110.375 19.8258 110.023 19.9773C109.67 20.1288 109.241 20.2045 108.733 20.2045ZM108.938 19C109.468 19 109.915 18.8958 110.278 18.6875C110.646 18.4792 110.922 18.2102 111.108 17.8807C111.297 17.5511 111.392 17.2045 111.392 16.8409V15.6136C111.335 15.6818 111.21 15.7443 111.017 15.8011C110.828 15.8542 110.608 15.9015 110.358 15.9432C110.112 15.9811 109.871 16.0152 109.636 16.0455C109.405 16.072 109.218 16.0947 109.074 16.1136C108.725 16.1591 108.4 16.233 108.097 16.3352C107.797 16.4337 107.555 16.5833 107.369 16.7841C107.188 16.9811 107.097 17.25 107.097 17.5909C107.097 18.0568 107.269 18.4091 107.614 18.6477C107.962 18.8826 108.403 19 108.938 19ZM115.18 20V11.2727H116.476V12.5909H116.567C116.726 12.1591 117.014 11.8087 117.43 11.5398C117.847 11.2708 118.317 11.1364 118.839 11.1364C118.938 11.1364 119.061 11.1383 119.209 11.142C119.357 11.1458 119.468 11.1515 119.544 11.1591V12.5227C119.499 12.5114 119.394 12.4943 119.232 12.4716C119.072 12.4451 118.904 12.4318 118.726 12.4318C118.302 12.4318 117.923 12.5208 117.589 12.6989C117.26 12.8731 116.999 13.1155 116.805 13.4261C116.616 13.733 116.521 14.0833 116.521 14.4773V20H115.18Z" fill="#2B2B33"/>
<line x1="47" y1="27.5" x2="297" y2="27.5" stroke="#0D0D0D"/>
</svg>
