<svg width="19" height="21" viewBox="0 0 19 21" fill="none" xmlns="http://www.w3.org/2000/svg">
<path d="M16.0625 8.29407C16.4055 8.78109 16.7188 9.29046 17 9.81955V11.993C16.7188 12.522 16.4055 13.0314 16.0625 13.5184V8.29407ZM10.9062 17.9375H11.0554C11.0059 17.9638 10.9562 17.9899 10.9062 18.0157C10.4994 18.2258 10.0812 18.4169 9.65273 18.588C9.60189 18.5932 9.55099 18.5981 9.5 18.6027C9.44902 18.5981 9.39811 18.5932 9.34727 18.588C8.91885 18.4169 8.50062 18.2258 8.09375 18.0157C8.04385 17.9899 7.99411 17.9638 7.94455 17.9375H8.09375H10.9062ZM2.9375 8.29407V13.5184C2.59454 13.0314 2.28116 12.522 2 11.993L2 9.81955C2.28116 9.29046 2.59454 8.78109 2.9375 8.29407Z" fill="#4B0195" stroke="#4B0195" stroke-width="33.3333"/>
<path d="M5.88729 10.5748C6.07013 10.392 6.36644 10.3917 6.54955 10.5741C6.54977 10.5744 6.54999 10.5746 6.55021 10.5748L8.09375 12.1183L12.4498 7.76229C12.4502 7.76189 12.4506 7.76148 12.451 7.76108C12.6342 7.57924 12.9301 7.57964 13.1127 7.76229C13.2958 7.94535 13.2958 8.24215 13.1127 8.42521L8.75666 12.7813L8.42521 13.1127C8.24215 13.2958 7.94535 13.2958 7.76229 13.1127L7.43084 12.7813L5.88729 11.2377C5.70424 11.0546 5.70424 10.7579 5.88729 10.5748Z" fill="#4B0195" stroke="#4B0195" stroke-width="33.3333"/>
</svg>
