<?xml version="1.0" encoding="utf-8"?><!-- Uploaded to: SVG Repo, www.svgrepo.com, Generator: SVG Repo Mixer Tools -->
<svg width="800px" height="800px" viewBox="-0.5 0 25 25" fill="none" xmlns="http://www.w3.org/2000/svg">
<path d="M21.2091 5.41992C15.5991 16.0599 8.39906 16.0499 2.78906 5.41992" stroke="#000000" stroke-width="1.5" stroke-linecap="round" stroke-linejoin="round"/>
<path d="M1.99023 7.39001V17.39C1.99023 18.4509 2.41166 19.4682 3.1618 20.2184C3.91195 20.9685 4.92937 21.39 5.99023 21.39H17.9902C19.0511 21.39 20.0685 20.9685 20.8186 20.2184C21.5688 19.4682 21.9902 18.4509 21.9902 17.39V7.39001C21.9902 6.32915 21.5688 5.31167 20.8186 4.56152C20.0685 3.81138 19.0511 3.39001 17.9902 3.39001H5.99023C4.92937 3.39001 3.91195 3.81138 3.1618 4.56152C2.41166 5.31167 1.99023 6.32915 1.99023 7.39001Z" stroke="#000000" stroke-width="1.5" stroke-linecap="round" stroke-linejoin="round"/>
</svg>